<svg width="80" height="40" viewBox="0 0 80 40" fill="none" xmlns="http://www.w3.org/2000/svg">
<mask id="mask0_322_1724" style="mask-type:alpha" maskUnits="userSpaceOnUse" x="-1" y="8" width="25" height="24">
<rect x="-0.5" y="8" width="24" height="24" fill="#D9D9D9"/>
</mask>
<g mask="url(#mask0_322_1724)">
<path d="M10.375 27.3L3.775 20.7C3.675 20.6 3.604 20.4917 3.562 20.375C3.52067 20.2583 3.5 20.1333 3.5 20C3.5 19.8667 3.52067 19.7417 3.562 19.625C3.604 19.5083 3.675 19.4 3.775 19.3L10.375 12.7C10.5583 12.5167 10.7873 12.4207 11.062 12.412C11.3373 12.404 11.575 12.5 11.775 12.7C11.975 12.8833 12.0793 13.1123 12.088 13.387C12.096 13.6623 12 13.9 11.8 14.1L6.9 19H18.075C18.3583 19 18.596 19.0957 18.788 19.287C18.9793 19.479 19.075 19.7167 19.075 20C19.075 20.2833 18.9793 20.5207 18.788 20.712C18.596 20.904 18.3583 21 18.075 21H6.9L11.8 25.9C11.9833 26.0833 12.0793 26.3167 12.088 26.6C12.096 26.8833 12 27.1167 11.8 27.3C11.6167 27.5 11.3833 27.6 11.1 27.6C10.8167 27.6 10.575 27.5 10.375 27.3Z" fill="#2E2E2E"/>
</g>
<path d="M42.284 14.88L38.108 26H35.996L31.804 14.88H33.756L37.052 24.128L40.364 14.88H42.284ZM47.6334 26.144C46.8014 26.144 46.0494 25.9573 45.3774 25.584C44.7054 25.2 44.1774 24.6667 43.7934 23.984C43.4094 23.2907 43.2174 22.4907 43.2174 21.584C43.2174 20.688 43.4147 19.8933 43.8094 19.2C44.204 18.5067 44.7427 17.9733 45.4254 17.6C46.108 17.2267 46.8707 17.04 47.7134 17.04C48.556 17.04 49.3187 17.2267 50.0014 17.6C50.684 17.9733 51.2227 18.5067 51.6174 19.2C52.012 19.8933 52.2094 20.688 52.2094 21.584C52.2094 22.48 52.0067 23.2747 51.6014 23.968C51.196 24.6613 50.6414 25.2 49.9374 25.584C49.244 25.9573 48.476 26.144 47.6334 26.144ZM47.6334 24.56C48.1027 24.56 48.54 24.448 48.9454 24.224C49.3614 24 49.6974 23.664 49.9534 23.216C50.2094 22.768 50.3374 22.224 50.3374 21.584C50.3374 20.944 50.2147 20.4053 49.9694 19.968C49.724 19.52 49.3987 19.184 48.9934 18.96C48.588 18.736 48.1507 18.624 47.6814 18.624C47.212 18.624 46.7747 18.736 46.3694 18.96C45.9747 19.184 45.66 19.52 45.4254 19.968C45.1907 20.4053 45.0734 20.944 45.0734 21.584C45.0734 22.5333 45.3134 23.2693 45.7934 23.792C46.284 24.304 46.8974 24.56 47.6334 24.56ZM55.8365 14.16V26H54.0125V14.16H55.8365ZM60.3593 18.672V23.552C60.3593 23.8827 60.4339 24.1227 60.5833 24.272C60.7433 24.4107 61.0099 24.48 61.3833 24.48H62.5033V26H61.0633C60.2419 26 59.6126 25.808 59.1753 25.424C58.7379 25.04 58.5193 24.416 58.5193 23.552V18.672H57.4793V17.184H58.5193V14.992H60.3593V17.184H62.5033V18.672H60.3593ZM63.5764 21.552C63.5764 20.6667 63.7577 19.8827 64.1204 19.2C64.4937 18.5173 64.995 17.9893 65.6244 17.616C66.2644 17.232 66.9684 17.04 67.7364 17.04C68.4297 17.04 69.0324 17.1787 69.5444 17.456C70.067 17.7227 70.483 18.0587 70.7924 18.464V17.184H72.6324V26H70.7924V24.688C70.483 25.104 70.0617 25.4507 69.5284 25.728C68.995 26.0053 68.387 26.144 67.7044 26.144C66.947 26.144 66.2537 25.952 65.6244 25.568C64.995 25.1733 64.4937 24.6293 64.1204 23.936C63.7577 23.232 63.5764 22.4373 63.5764 21.552ZM70.7924 21.584C70.7924 20.976 70.6644 20.448 70.4084 20C70.163 19.552 69.8377 19.2107 69.4324 18.976C69.027 18.7413 68.5897 18.624 68.1204 18.624C67.651 18.624 67.2137 18.7413 66.8084 18.976C66.403 19.2 66.0724 19.536 65.8164 19.984C65.571 20.4213 65.4484 20.944 65.4484 21.552C65.4484 22.16 65.571 22.6933 65.8164 23.152C66.0724 23.6107 66.403 23.9627 66.8084 24.208C67.2244 24.4427 67.6617 24.56 68.1204 24.56C68.5897 24.56 69.027 24.4427 69.4324 24.208C69.8377 23.9733 70.163 23.632 70.4084 23.184C70.6644 22.7253 70.7924 22.192 70.7924 21.584ZM76.8521 18.464C77.1188 18.016 77.4708 17.6693 77.9081 17.424C78.3561 17.168 78.8841 17.04 79.4921 17.04V18.928H79.0281C78.3135 18.928 77.7695 19.1093 77.3961 19.472C77.0335 19.8347 76.8521 20.464 76.8521 21.36V26H75.0281V17.184H76.8521V18.464Z" fill="#2E2E2E"/>
</svg>
