<svg width="16" height="12" viewBox="0 0 16 12" fill="none" xmlns="http://www.w3.org/2000/svg">
<path d="M15.9928 7.48311L15.9805 7.45379C15.9806 7.44587 15.9823 7.43827 15.9823 7.43034H15.9706L13.6041 1.81521C13.7382 1.75663 13.8325 1.62612 13.8325 1.47318C13.8325 1.28791 13.6928 1.14098 13.5124 1.11018C13.5116 1.06821 13.5114 1.02695 13.5055 0.980374C13.4853 0.852925 13.4543 0.680497 13.283 0.566335C13.2332 0.541868 13.1789 0.523343 13.1424 0.520596C13.0889 0.511205 13.0299 0.517785 12.9808 0.534075C12.8762 0.56557 12.7993 0.627986 12.724 0.687782C12.5759 0.810121 12.446 0.950667 12.2949 1.06828C12.1455 1.18666 11.9782 1.28427 11.7956 1.33097C11.6994 1.35576 11.6312 1.36585 11.5137 1.36495C11.4232 1.36987 11.3149 1.34605 11.217 1.3387C11.0196 1.30203 10.8299 1.24824 10.6634 1.15305C10.4944 1.06227 10.3427 0.950025 10.1832 0.8243C10.0186 0.708797 9.84165 0.584543 9.643 0.512034C9.44279 0.444636 9.24107 0.414674 9.06522 0.432178C8.97573 0.430645 8.89427 0.44828 8.81772 0.465209C8.74103 0.481563 8.66838 0.493317 8.60313 0.517848C8.47235 0.560906 8.35641 0.593616 8.27449 0.640124C8.24353 0.65469 8.21799 0.667145 8.19205 0.67973V0.0728279C8.19205 0.0326445 8.15867 0 8.11758 0H7.88242C7.84127 0 7.80795 0.0326445 7.80795 0.0728279V0.67973C7.78202 0.667145 7.75647 0.65469 7.72545 0.640124C7.6436 0.593616 7.52759 0.560906 7.39681 0.517848C7.33162 0.493317 7.25891 0.481563 7.18229 0.465209C7.1056 0.44828 7.02427 0.430645 6.93471 0.432178C6.75893 0.414674 6.55715 0.444636 6.357 0.512034C6.15829 0.584543 5.98139 0.708797 5.81665 0.8243C5.65726 0.950025 5.50551 1.06227 5.33652 1.15305C5.17015 1.24824 4.98032 1.30203 4.78305 1.3387C4.685 1.34605 4.57676 1.36987 4.48629 1.36495C4.36877 1.36585 4.30057 1.35576 4.20441 1.33097C4.02184 1.28427 3.85448 1.18666 3.70508 1.06828C3.55386 0.950667 3.42413 0.810121 3.27598 0.687782C3.20066 0.627986 3.12378 0.56557 3.01913 0.534075C2.97007 0.517785 2.91102 0.511205 2.85752 0.520596C2.82107 0.523343 2.76679 0.541868 2.71701 0.566335C2.5456 0.680497 2.51471 0.852925 2.49446 0.980374C2.48858 1.02695 2.48845 1.06828 2.48753 1.11018C2.30711 1.14098 2.16745 1.28791 2.16745 1.47318C2.16745 1.62612 2.26171 1.75657 2.39588 1.81515L0.0293702 7.43034H0.017607C0.017607 7.43827 0.0192418 7.44599 0.0194378 7.45391L0.00709408 7.48311C-0.00943261 7.52259 0.00480498 7.56085 0.0303462 7.59184C0.157791 8.42873 1.26377 9.0831 2.61008 9.0831C3.95638 9.0831 5.06243 8.42873 5.18981 7.59178C5.21574 7.56028 5.22998 7.52106 5.21241 7.48132L5.20065 7.45474C5.20085 7.4465 5.20261 7.43858 5.20261 7.43034H5.18988L2.70676 1.81547C2.84119 1.75702 2.93565 1.62631 2.93565 1.47318C2.93565 1.27309 2.7745 1.11319 2.57291 1.10176C2.57722 1.06687 2.57997 1.03308 2.5882 0.99609C2.614 0.879117 2.66907 0.738506 2.78194 0.681393C2.91148 0.625239 3.0256 0.687781 3.15389 0.818361C3.27768 0.941914 3.40369 1.09191 3.55896 1.23252C3.71325 1.37256 3.90249 1.50429 4.12701 1.57807C4.36282 1.65914 4.59087 1.65218 4.82139 1.63679C5.04924 1.61475 5.28414 1.56818 5.49526 1.47094C5.7088 1.38202 5.89647 1.25156 6.05691 1.13708C6.21375 1.01404 6.35994 0.920001 6.5013 0.846853C6.64618 0.785843 6.79251 0.740871 6.9406 0.732566C7.08522 0.716339 7.2301 0.718827 7.35383 0.728729C7.47827 0.745403 7.58951 0.747707 7.68469 0.766105C7.73074 0.773899 7.77177 0.780413 7.80795 0.785907V1.57386C7.58808 1.65122 7.42986 1.85495 7.42986 2.09669C7.42986 2.33434 7.58259 2.5359 7.79685 2.61614C7.52563 2.70072 7.3279 2.94623 7.3279 3.23952C7.3279 3.53684 7.53099 3.78509 7.80795 3.86629V8.5296H7.71833C7.65287 8.5296 7.5999 8.58141 7.5999 8.64536V9.77382H6.5868C6.32329 9.77382 6.10962 9.98278 6.10962 10.2405V10.7939H5.33587C5.26872 10.7939 5.2143 10.8472 5.2143 10.9128V11.4263C5.2143 11.4919 5.26872 11.5452 5.33587 11.5452H10.6641C10.7312 11.5452 10.7857 11.4919 10.7857 11.4263V10.9128C10.7857 10.8472 10.7312 10.7939 10.6641 10.7939H9.89038V10.2271C9.89038 9.97678 9.68292 9.77382 9.42692 9.77382H8.4001V8.64536C8.4001 8.58141 8.347 8.5296 8.28167 8.5296H8.19205V3.86629C8.46902 3.78509 8.67211 3.53684 8.67211 3.23952C8.67211 2.94623 8.47438 2.70072 8.20316 2.61614C8.41735 2.5359 8.57008 2.33434 8.57008 2.09669C8.57008 1.85495 8.41193 1.65122 8.19205 1.57386V0.785907C8.22818 0.780413 8.26926 0.773899 8.31525 0.766105C8.41042 0.747707 8.52174 0.745403 8.64605 0.728729C8.76983 0.718827 8.91466 0.716339 9.05941 0.732566C9.20743 0.740871 9.35376 0.785843 9.49871 0.846853C9.63994 0.920001 9.78619 1.01404 9.94303 1.13708C10.1035 1.25156 10.2911 1.38202 10.5047 1.47094C10.7158 1.56818 10.9507 1.61475 11.1786 1.63679C11.4091 1.65218 11.6371 1.65914 11.873 1.57807C12.0975 1.50429 12.2867 1.37256 12.4411 1.23252C12.5962 1.09191 12.7223 0.941914 12.846 0.818361C12.9743 0.687781 13.0886 0.625239 13.2181 0.681393C13.3309 0.738506 13.386 0.879117 13.4117 0.99609C13.42 1.03308 13.4227 1.06687 13.4271 1.10176C13.2254 1.11319 13.0644 1.27309 13.0644 1.47318C13.0644 1.62631 13.1588 1.75702 13.2932 1.81547L10.8101 7.43034H10.7973C10.7973 7.43858 10.799 7.44657 10.7992 7.45487L10.7875 7.48132C10.7701 7.52106 10.7842 7.56022 10.8101 7.59171C10.9374 8.42873 12.0434 9.0831 13.3898 9.0831C14.736 9.0831 15.8421 8.42879 15.9696 7.59197C15.9951 7.56092 16.0096 7.52266 15.9928 7.48311ZM0.278573 7.43034L2.4405 2.30131L2.49132 7.43034H0.278573ZM2.72165 7.43034L2.67083 2.30188L4.93877 7.43034H2.72165ZM13.2783 7.43034H11.0612L13.3292 2.30188L13.2783 7.43034ZM13.5086 7.43034L13.5595 2.30131L15.7213 7.43034H13.5086Z" fill="black"/>
<path d="M15.9928 7.48311L15.9805 7.45379C15.9806 7.44587 15.9823 7.43827 15.9823 7.43034H15.9706L13.6041 1.81521C13.7382 1.75663 13.8325 1.62612 13.8325 1.47318C13.8325 1.28791 13.6928 1.14098 13.5124 1.11018C13.5116 1.06821 13.5114 1.02695 13.5055 0.980374C13.4853 0.852925 13.4543 0.680497 13.283 0.566335C13.2332 0.541868 13.1789 0.523343 13.1424 0.520596C13.0889 0.511205 13.0299 0.517785 12.9808 0.534075C12.8762 0.56557 12.7993 0.627986 12.724 0.687782C12.5759 0.810121 12.446 0.950667 12.2949 1.06828C12.1455 1.18666 11.9782 1.28427 11.7956 1.33097C11.6994 1.35576 11.6312 1.36585 11.5137 1.36495C11.4232 1.36987 11.3149 1.34605 11.217 1.3387C11.0196 1.30203 10.8299 1.24824 10.6634 1.15305C10.4944 1.06227 10.3427 0.950025 10.1832 0.8243C10.0186 0.708797 9.84165 0.584543 9.643 0.512034C9.44279 0.444636 9.24107 0.414674 9.06522 0.432178C8.97573 0.430645 8.89427 0.44828 8.81772 0.465209C8.74103 0.481563 8.66838 0.493317 8.60313 0.517848C8.47235 0.560906 8.35641 0.593616 8.27449 0.640124C8.24353 0.65469 8.21799 0.667145 8.19205 0.67973V0.0728279C8.19205 0.0326445 8.15867 0 8.11758 0H7.88242C7.84127 0 7.80795 0.0326445 7.80795 0.0728279V0.67973C7.78202 0.667145 7.75647 0.65469 7.72545 0.640124C7.6436 0.593616 7.52759 0.560906 7.39681 0.517848C7.33162 0.493317 7.25891 0.481563 7.18229 0.465209C7.1056 0.44828 7.02427 0.430645 6.93471 0.432178C6.75893 0.414674 6.55715 0.444636 6.357 0.512034C6.15829 0.584543 5.98139 0.708797 5.81665 0.8243C5.65726 0.950025 5.50551 1.06227 5.33652 1.15305C5.17015 1.24824 4.98032 1.30203 4.78305 1.3387C4.685 1.34605 4.57676 1.36987 4.48629 1.36495C4.36877 1.36585 4.30057 1.35576 4.20441 1.33097C4.02184 1.28427 3.85448 1.18666 3.70508 1.06828C3.55386 0.950667 3.42413 0.810121 3.27598 0.687782C3.20066 0.627986 3.12378 0.56557 3.01913 0.534075C2.97007 0.517785 2.91102 0.511205 2.85752 0.520596C2.82107 0.523343 2.76679 0.541868 2.71701 0.566335C2.5456 0.680497 2.51471 0.852925 2.49446 0.980374C2.48858 1.02695 2.48845 1.06828 2.48753 1.11018C2.30711 1.14098 2.16745 1.28791 2.16745 1.47318C2.16745 1.62612 2.26171 1.75657 2.39588 1.81515L0.0293702 7.43034H0.017607C0.017607 7.43827 0.0192418 7.44599 0.0194378 7.45391L0.00709408 7.48311C-0.00943261 7.52259 0.00480498 7.56085 0.0303462 7.59184C0.157791 8.42873 1.26377 9.0831 2.61008 9.0831C3.95638 9.0831 5.06243 8.42873 5.18981 7.59178C5.21574 7.56028 5.22998 7.52106 5.21241 7.48132L5.20065 7.45474C5.20085 7.4465 5.20261 7.43858 5.20261 7.43034H5.18988L2.70676 1.81547C2.84119 1.75702 2.93565 1.62631 2.93565 1.47318C2.93565 1.27309 2.7745 1.11319 2.57291 1.10176C2.57722 1.06687 2.57997 1.03308 2.5882 0.99609C2.614 0.879117 2.66907 0.738506 2.78194 0.681393C2.91148 0.625239 3.0256 0.687781 3.15389 0.818361C3.27768 0.941914 3.40369 1.09191 3.55896 1.23252C3.71325 1.37256 3.90249 1.50429 4.12701 1.57807C4.36282 1.65914 4.59087 1.65218 4.82139 1.63679C5.04924 1.61475 5.28414 1.56818 5.49526 1.47094C5.7088 1.38202 5.89647 1.25156 6.05691 1.13708C6.21375 1.01404 6.35994 0.920001 6.5013 0.846853C6.64618 0.785843 6.79251 0.740871 6.9406 0.732566C7.08522 0.716339 7.2301 0.718827 7.35383 0.728729C7.47827 0.745403 7.58951 0.747707 7.68469 0.766105C7.73074 0.773899 7.77177 0.780413 7.80795 0.785907V1.57386C7.58808 1.65122 7.42986 1.85495 7.42986 2.09669C7.42986 2.33434 7.58259 2.5359 7.79685 2.61614C7.52563 2.70072 7.3279 2.94623 7.3279 3.23952C7.3279 3.53684 7.53099 3.78509 7.80795 3.86629V8.5296H7.71833C7.65287 8.5296 7.5999 8.58141 7.5999 8.64536V9.77382H6.5868C6.32329 9.77382 6.10962 9.98278 6.10962 10.2405V10.7939H5.33587C5.26872 10.7939 5.2143 10.8472 5.2143 10.9128V11.4263C5.2143 11.4919 5.26872 11.5452 5.33587 11.5452H10.6641C10.7312 11.5452 10.7857 11.4919 10.7857 11.4263V10.9128C10.7857 10.8472 10.7312 10.7939 10.6641 10.7939H9.89038V10.2271C9.89038 9.97678 9.68292 9.77382 9.42692 9.77382H8.4001V8.64536C8.4001 8.58141 8.347 8.5296 8.28167 8.5296H8.19205V3.86629C8.46902 3.78509 8.67211 3.53684 8.67211 3.23952C8.67211 2.94623 8.47438 2.70072 8.20316 2.61614C8.41735 2.5359 8.57008 2.33434 8.57008 2.09669C8.57008 1.85495 8.41193 1.65122 8.19205 1.57386V0.785907C8.22818 0.780413 8.26926 0.773899 8.31525 0.766105C8.41042 0.747707 8.52174 0.745403 8.64605 0.728729C8.76983 0.718827 8.91466 0.716339 9.05941 0.732566C9.20743 0.740871 9.35376 0.785843 9.49871 0.846853C9.63994 0.920001 9.78619 1.01404 9.94303 1.13708C10.1035 1.25156 10.2911 1.38202 10.5047 1.47094C10.7158 1.56818 10.9507 1.61475 11.1786 1.63679C11.4091 1.65218 11.6371 1.65914 11.873 1.57807C12.0975 1.50429 12.2867 1.37256 12.4411 1.23252C12.5962 1.09191 12.7223 0.941914 12.846 0.818361C12.9743 0.687781 13.0886 0.625239 13.2181 0.681393C13.3309 0.738506 13.386 0.879117 13.4117 0.99609C13.42 1.03308 13.4227 1.06687 13.4271 1.10176C13.2254 1.11319 13.0644 1.27309 13.0644 1.47318C13.0644 1.62631 13.1588 1.75702 13.2932 1.81547L10.8101 7.43034H10.7973C10.7973 7.43858 10.799 7.44657 10.7992 7.45487L10.7875 7.48132C10.7701 7.52106 10.7842 7.56022 10.8101 7.59171C10.9374 8.42873 12.0434 9.0831 13.3898 9.0831C14.736 9.0831 15.8421 8.42879 15.9696 7.59197C15.9951 7.56092 16.0096 7.52266 15.9928 7.48311ZM0.278573 7.43034L2.4405 2.30131L2.49132 7.43034H0.278573ZM2.72165 7.43034L2.67083 2.30188L4.93877 7.43034H2.72165ZM13.2783 7.43034H11.0612L13.3292 2.30188L13.2783 7.43034ZM13.5086 7.43034L13.5595 2.30131L15.7213 7.43034H13.5086Z" fill="#FFBB00"/>
</svg>
