<svg width="200" height="80" viewBox="0 0 200 80" fill="none" xmlns="http://www.w3.org/2000/svg">
<path d="M72.3352 24.259C72.3352 22.4329 71.6774 20.9659 70.3617 19.858C70.1013 19.6528 69.2995 19.1091 67.9564 18.2268C66.7366 17.4471 65.9691 16.6469 65.6539 15.8262C65.4894 15.3748 65.4072 14.8927 65.4072 14.3797C65.4072 13.0051 65.8526 12.051 66.7435 11.5175C67.1272 11.2918 67.5521 11.179 68.0181 11.179C69.1693 11.179 70.0465 11.7637 70.6495 12.9332C71.0469 13.7334 71.2388 14.708 71.2251 15.857H71.8419V10.4711C71.5129 10.4711 71.3211 10.625 71.2662 10.9328C71.2388 11.0764 71.2251 11.2713 71.2251 11.5175C70.252 10.7173 69.1556 10.3172 67.9358 10.3172C66.4557 10.3172 65.3044 10.9328 64.4821 12.1638C63.9339 13.0256 63.6598 14.0309 63.6598 15.1799C63.6598 16.9034 64.3039 18.3089 65.5922 19.3963C65.8252 19.581 66.6064 20.1042 67.9358 20.9659C69.1693 21.7866 69.9505 22.6176 70.2794 23.4588C70.4576 23.9307 70.5467 24.4437 70.5467 24.9976C70.5467 26.4339 70.0807 27.47 69.1488 28.1061C68.7102 28.3933 68.2237 28.5369 67.6891 28.5369C65.5922 28.4959 64.4273 26.5775 64.1943 22.7817H63.5776V29.1525C63.9065 29.1525 64.0984 29.0088 64.1532 28.7216C64.1806 28.5574 64.1943 28.2599 64.1943 27.8291C65.2496 28.8755 66.4488 29.3987 67.7919 29.3987C69.368 29.3987 70.5878 28.7626 71.4513 27.4905C72.0406 26.5878 72.3352 25.5106 72.3352 24.259Z" fill="#FFBB00"/>
<path d="M73.5687 11.4252H75.2133V22.1662C75.2408 26.9673 76.8374 29.3782 80.0033 29.3987C82.4155 29.3987 83.8751 27.9214 84.3822 24.9669C84.533 24.0641 84.6083 23.0382 84.6083 21.8892V11.4252H86.253V10.625H82.2442V11.4252H83.8888V22.0739C83.8888 26.0543 82.902 28.1984 80.9285 28.5062C80.764 28.5267 80.5995 28.5369 80.4351 28.5369C78.763 28.5369 77.7077 27.4803 77.2691 25.3669C77.0773 24.4437 76.9813 23.3152 76.9813 21.9815V11.4252H78.6054V10.625H73.5687V11.4252Z" fill="#FFBB00"/>
<path d="M92.2148 29.0909C92.2148 28.6395 92.1051 28.383 91.8858 28.3215C91.8173 28.301 91.7488 28.2907 91.6803 28.2907H90.5907V11.4252H92.2148V10.625H87.1781V11.4252H88.8227V28.2907H87.1781V29.0909H92.2148Z" fill="#FFBB00"/>
<path d="M101.713 29.0909C101.713 28.6395 101.603 28.383 101.384 28.3215C101.315 28.301 101.247 28.2907 101.178 28.2907H99.7801V11.4252H100.972C102.083 11.4252 102.823 12.4306 103.193 14.4413C103.193 14.5234 103.2 14.5849 103.213 14.6259L103.542 16.688H104.118L104.015 10.625H93.8594L93.7566 16.688H94.3322L94.6612 14.6259C95.0997 12.6152 95.8467 11.5483 96.902 11.4252H98.0121V28.2907H96.0591V29.0909H101.713Z" fill="#FFBB00"/>
<path d="M73.6098 65.2509C73.6098 66.1127 73.6921 66.6051 73.8565 66.7282C73.9525 66.7898 74.0827 66.8205 74.2471 66.8205V61.0038H73.7537C73.0548 64.3892 71.6568 66.0922 69.5599 66.1127C67.7782 66.1127 66.5653 64.7688 65.9212 62.081C65.6059 60.7678 65.4483 59.2187 65.4483 57.4337C65.4483 53.5969 66.1542 50.9912 67.5658 49.6165C68.1825 49.042 68.8678 48.7547 69.6216 48.7547C71.3348 48.7547 72.5751 49.9653 73.3426 52.3864C73.4796 52.8172 73.5961 53.2584 73.6921 53.7098H74.1855L74.1238 48.0469C73.8223 48.0469 73.6372 48.1905 73.5687 48.4777C73.5276 48.724 73.507 49.1241 73.507 49.678C73.1096 49.083 72.4312 48.6008 71.4718 48.2315C70.8414 48.0058 70.1972 47.893 69.5394 47.893C67.3739 47.893 65.7156 49.0933 64.5643 51.4938C63.7694 53.1968 63.372 55.1562 63.372 57.3722C63.372 60.06 63.927 62.3169 65.0372 64.143C66.2158 66.0306 67.7508 66.9744 69.6422 66.9744C71.0264 66.9539 72.3489 66.3794 73.6098 65.2509Z" fill="#FFBB00"/>
<path d="M82.4703 47.893C80.8257 47.893 79.414 48.7034 78.2354 50.3243C76.9471 52.1094 76.3029 54.4381 76.3029 57.3106C76.3029 60.6345 77.0636 63.1992 78.5849 65.0047C79.695 66.3179 80.9696 66.9744 82.4086 66.9744C84.0259 66.9744 85.4169 66.1537 86.5819 64.5123C87.8839 62.6862 88.5349 60.3267 88.5349 57.4337C88.5349 54.0483 87.7468 51.4733 86.1707 49.7088C85.1017 48.4983 83.8682 47.893 82.4703 47.893ZM82.4703 66.1127C80.483 66.1127 79.2084 64.5226 78.6465 61.3423C78.4547 60.2139 78.3587 58.911 78.3587 57.4337C78.3587 52.5505 79.3455 49.7191 81.3191 48.9394C81.6617 48.8163 82.0249 48.7547 82.4086 48.7547C85.1086 48.7958 86.4654 51.6477 86.4791 57.3106C86.4791 61.7835 85.6499 64.5636 83.9916 65.651C83.5256 65.9588 83.0185 66.1127 82.4703 66.1127Z" fill="#FFBB00"/>
<path d="M95.5246 66.6667V65.8665H93.9005V58.2031H95.8535L99.1428 66.6667H102.247C102.247 66.2153 102.165 65.9588 102 65.8972C101.932 65.8767 101.85 65.8665 101.754 65.8665H100.972L97.6626 57.9261C98.9646 57.4542 99.8555 56.4386 100.335 54.8793C100.513 54.2637 100.602 53.6379 100.602 53.0019C100.602 51.4631 100.157 50.232 99.2661 49.3087C98.5398 48.5701 97.6421 48.2008 96.573 48.2008H90.4879V49.0009H92.1325V65.8665H90.4879V66.6667H95.5246ZM95.9563 49.0009C97.135 49.0009 97.9504 49.7191 98.4027 51.1553C98.5809 51.7503 98.67 52.3761 98.67 53.0327C98.67 54.5099 98.3273 55.6589 97.6421 56.4796C97.1761 57.0336 96.6347 57.3106 96.018 57.3106H93.9005V49.0009H95.9563Z" fill="#FFBB00"/>
<path d="M108.723 49.0009C109.943 49.0009 110.731 49.8217 111.087 51.4631C111.197 51.9965 111.251 52.571 111.251 53.1866C111.251 55.8538 110.456 57.3209 108.867 57.5876C108.702 57.6081 108.538 57.6184 108.373 57.6184H106.482V49.0009H108.723ZM108.538 66.6667C108.538 66.2153 108.428 65.9588 108.209 65.8972C108.14 65.8767 108.072 65.8665 108.003 65.8665H106.482V58.5109H108.291C110.539 58.5109 112.026 57.5568 112.752 55.6487C113.04 54.9306 113.184 54.0996 113.184 53.1558C113.184 51.1245 112.595 49.6985 111.416 48.8778C110.785 48.4264 110.032 48.2008 109.154 48.2008H103.069V49.0009H104.714V65.8665H103.069V66.6667H108.538Z" fill="#FFBB00"/>
<path d="M121.099 47.893C119.454 47.893 118.042 48.7034 116.864 50.3243C115.575 52.1094 114.931 54.4381 114.931 57.3106C114.931 60.6345 115.692 63.1992 117.213 65.0047C118.323 66.3179 119.598 66.9744 121.037 66.9744C122.654 66.9744 124.045 66.1537 125.21 64.5123C126.512 62.6862 127.163 60.3267 127.163 57.4337C127.163 54.0483 126.375 51.4733 124.799 49.7088C123.73 48.4983 122.497 47.893 121.099 47.893ZM121.099 66.1127C119.111 66.1127 117.837 64.5226 117.275 61.3423C117.083 60.2139 116.987 58.911 116.987 57.4337C116.987 52.5505 117.974 49.7191 119.947 48.9394C120.29 48.8163 120.653 48.7547 121.037 48.7547C123.737 48.7958 125.094 51.6477 125.107 57.3106C125.107 61.7835 124.278 64.5636 122.62 65.651C122.154 65.9588 121.647 66.1127 121.099 66.1127Z" fill="#FFBB00"/>
<path d="M134.153 66.6667V65.8665H132.529V58.2031H134.482L137.771 66.6667H140.875C140.875 66.2153 140.793 65.9588 140.629 65.8972C140.56 65.8767 140.478 65.8665 140.382 65.8665H139.601L136.291 57.9261C137.593 57.4542 138.484 56.4386 138.964 54.8793C139.142 54.2637 139.231 53.6379 139.231 53.0019C139.231 51.4631 138.785 50.232 137.894 49.3087C137.168 48.5701 136.27 48.2008 135.201 48.2008H129.116V49.0009H130.761V65.8665H129.116V66.6667H134.153ZM134.585 49.0009C135.763 49.0009 136.579 49.7191 137.031 51.1553C137.209 51.7503 137.298 52.3761 137.298 53.0327C137.298 54.5099 136.956 55.6589 136.27 56.4796C135.804 57.0336 135.263 57.3106 134.646 57.3106H132.529V49.0009H134.585Z" fill="#FFBB00"/>
<path d="M153.477 66.6667C153.477 66.2153 153.368 65.9588 153.148 65.8972C153.08 65.8767 153.011 65.8665 152.943 65.8665H152.244L147.536 48.2008H146.776L142.171 65.8665H140.875V66.6667H144.535C144.535 66.2153 144.425 65.9588 144.206 65.8972C144.137 65.8767 144.069 65.8665 144 65.8665H142.993L144.535 59.8958H148.831L150.373 65.8665H149.037V66.6667H153.477ZM148.605 59.0033H144.761L146.673 51.5554L148.605 59.0033Z" fill="#FFBB00"/>
<path d="M162.153 66.6667C162.153 66.2153 162.043 65.9588 161.824 65.8972C161.755 65.8767 161.687 65.8665 161.618 65.8665H160.22V49.0009H161.413C162.523 49.0009 163.263 50.0063 163.633 52.017C163.633 52.0991 163.64 52.1607 163.654 52.2017L163.983 54.2637H164.558L164.455 48.2008H154.3L154.197 54.2637H154.773L155.101 52.2017C155.54 50.191 156.287 49.1241 157.342 49.0009H158.452V65.8665H156.499V66.6667H162.153Z" fill="#FFBB00"/>
<path d="M171.137 66.6667C171.137 66.2153 171.027 65.9588 170.808 65.8972C170.739 65.8767 170.671 65.8665 170.602 65.8665H169.513V49.0009H171.137V48.2008H166.1V49.0009H167.745V65.8665H166.1V66.6667H171.137Z" fill="#FFBB00"/>
<path d="M179.257 47.893C177.612 47.893 176.201 48.7034 175.022 50.3243C173.734 52.1094 173.09 54.4381 173.09 57.3106C173.09 60.6345 173.85 63.1992 175.372 65.0047C176.482 66.3179 177.756 66.9744 179.195 66.9744C180.813 66.9744 182.204 66.1537 183.369 64.5123C184.671 62.6862 185.322 60.3267 185.322 57.4337C185.322 54.0483 184.534 51.4733 182.957 49.7088C181.888 48.4983 180.655 47.893 179.257 47.893ZM179.257 66.1127C177.27 66.1127 175.995 64.5226 175.433 61.3423C175.241 60.2139 175.145 58.911 175.145 57.4337C175.145 52.5505 176.132 49.7191 178.106 48.9394C178.448 48.8163 178.812 48.7547 179.195 48.7547C181.895 48.7958 183.252 51.6477 183.266 57.3106C183.266 61.7835 182.437 64.5636 180.778 65.651C180.312 65.9588 179.805 66.1127 179.257 66.1127Z" fill="#FFBB00"/>
<path d="M195.786 49.0009H197.533V62.7888L189.721 48.2008H186.863V49.0009H188.508V65.8665H186.863V66.6667H191.078C191.078 66.2153 190.968 65.9588 190.749 65.8972C190.68 65.8767 190.612 65.8665 190.543 65.8665H189.33V51.6169L197.41 66.8205L198.355 66.5128V49.0009H200V48.2008H195.786V49.0009Z" fill="#FFBB00"/>
<path d="M46.1299 47.016L46.0945 46.8887C46.0949 46.8544 46.0998 46.8214 46.0998 46.787H46.0659L39.24 22.422C39.6268 22.1678 39.8987 21.6015 39.8987 20.9378C39.8987 20.1339 39.4959 19.4963 38.9755 19.3627C38.973 19.1806 38.9727 19.0016 38.9557 18.7995C38.8973 18.2464 38.808 17.4982 38.3137 17.0029C38.1702 16.8967 38.0136 16.8163 37.9083 16.8044C37.754 16.7637 37.5836 16.7922 37.4421 16.8629C37.1405 16.9996 36.9187 17.2704 36.7013 17.5299C36.2741 18.0607 35.8995 18.6706 35.4637 19.1809C35.0326 19.6946 34.5501 20.1181 34.0234 20.3208C33.7461 20.4283 33.5494 20.4721 33.2104 20.4682C32.9493 20.4896 32.6371 20.3862 32.3544 20.3543C31.7852 20.1952 31.2379 19.9618 30.7578 19.5487C30.2703 19.1548 29.8326 18.6678 29.3727 18.1222C28.8979 17.621 28.3875 17.0819 27.8145 16.7673C27.237 16.4748 26.6552 16.3448 26.1479 16.4207C25.8898 16.4141 25.6548 16.4906 25.434 16.5641C25.2128 16.635 25.0033 16.686 24.8151 16.7925C24.4378 16.9793 24.1034 17.1213 23.8671 17.3231C23.7778 17.3863 23.7041 17.4403 23.6293 17.4949V14.8615C23.6293 14.6871 23.5331 14.5455 23.4145 14.5455H22.7362C22.6175 14.5455 22.5214 14.6871 22.5214 14.8615V17.4949C22.4466 17.4403 22.3729 17.3863 22.2835 17.3231C22.0474 17.1213 21.7127 16.9793 21.3355 16.7925C21.1475 16.686 20.9378 16.635 20.7168 16.5641C20.4956 16.4906 20.261 16.4141 20.0026 16.4207C19.4956 16.3448 18.9136 16.4748 18.3363 16.7673C17.7631 17.0819 17.2529 17.621 16.7777 18.1222C16.3179 18.6678 15.8802 19.1548 15.3928 19.5487C14.9129 19.9618 14.3653 20.1952 13.7963 20.3543C13.5135 20.3862 13.2013 20.4896 12.9403 20.4682C12.6014 20.4721 12.4047 20.4283 12.1273 20.3208C11.6007 20.1181 11.1179 19.6946 10.687 19.1809C10.2508 18.6706 9.87665 18.0607 9.44931 17.5299C9.23207 17.2704 9.01029 16.9996 8.70845 16.8629C8.56694 16.7922 8.39661 16.7637 8.24229 16.8044C8.13716 16.8163 7.98058 16.8967 7.83701 17.0029C7.3426 17.4982 7.25349 18.2464 7.19508 18.7995C7.17812 19.0016 7.17773 19.1809 7.1751 19.3627C6.65468 19.4963 6.25184 20.1339 6.25184 20.9378C6.25184 21.6015 6.52373 22.1675 6.91074 22.4217L0.0847161 46.787H0.050786C0.050786 46.8214 0.0555016 46.8549 0.0560669 46.8893L0.0204623 47.016C-0.0272076 47.1873 0.0138596 47.3533 0.0875313 47.4878C0.455136 51.1192 3.64525 53.9586 7.52856 53.9586C11.4119 53.9586 14.6022 51.1192 14.9696 47.4875C15.0444 47.3508 15.0855 47.1806 15.0348 47.0082L15.0009 46.8929C15.0014 46.8571 15.0065 46.8228 15.0065 46.787H14.9698L7.80744 22.4231C8.19521 22.1695 8.46764 21.6023 8.46764 20.9378C8.46764 20.0696 8.00283 19.3758 7.42137 19.3262C7.4338 19.1748 7.44171 19.0282 7.46545 18.8677C7.53988 18.3601 7.69872 17.75 8.02431 17.5021C8.39794 17.2585 8.7271 17.5299 9.09715 18.0965C9.45421 18.6326 9.81768 19.2835 10.2656 19.8936C10.7106 20.5012 11.2564 21.0728 11.904 21.393C12.5842 21.7448 13.242 21.7146 13.9069 21.6478C14.5641 21.5521 15.2417 21.35 15.8507 20.9281C16.4666 20.5423 17.0079 19.9762 17.4707 19.4794C17.9231 18.9455 18.3448 18.5375 18.7525 18.2201C19.1704 17.9554 19.5925 17.7602 20.0196 17.7242C20.4368 17.6538 20.8547 17.6646 21.2115 17.7075C21.5705 17.7799 21.8914 17.7899 22.1659 17.8697C22.2987 17.9035 22.4171 17.9318 22.5214 17.9556V21.3747C21.8872 21.7104 21.4309 22.5944 21.4309 23.6433C21.4309 24.6746 21.8714 25.5492 22.4894 25.8973C21.7071 26.2643 21.1367 27.3296 21.1367 28.6023C21.1367 29.8924 21.7225 30.9696 22.5214 31.322V51.5569H22.2629C22.0741 51.5569 21.9213 51.7817 21.9213 52.0592V56.9558H18.9991C18.239 56.9558 17.6227 57.8625 17.6227 58.9807V61.3822H15.3909C15.1972 61.3822 15.0403 61.6134 15.0403 61.8981V64.126C15.0403 64.4109 15.1972 64.6421 15.3909 64.6421H30.7598C30.9534 64.6421 31.1105 64.4109 31.1105 64.126V61.8981C31.1105 61.6134 30.9534 61.3822 30.7598 61.3822H28.528V58.9225C28.528 57.8364 27.9296 56.9558 27.1912 56.9558H24.2294V52.0592C24.2294 51.7817 24.0763 51.5569 23.8878 51.5569H23.6293V31.322C24.4282 30.9696 25.014 29.8924 25.014 28.6023C25.014 27.3296 24.4437 26.2643 23.6614 25.8973C24.2792 25.5492 24.7197 24.6746 24.7197 23.6433C24.7197 22.5944 24.2636 21.7104 23.6293 21.3747V17.9556C23.7335 17.9318 23.852 17.9035 23.9847 17.8697C24.2592 17.7899 24.5803 17.7799 24.9388 17.7075C25.2959 17.6646 25.7136 17.6538 26.1312 17.7242C26.5581 17.7602 26.9802 17.9554 27.3983 18.2201C27.8056 18.5375 28.2275 18.9455 28.6799 19.4794C29.1428 19.9762 29.6838 20.5423 30.3001 20.9281C30.9089 21.35 31.5865 21.5521 32.2438 21.6478C32.9086 21.7146 33.5664 21.7448 34.2467 21.393C34.8943 21.0728 35.4402 20.5012 35.8854 19.8936C36.3329 19.2835 36.6966 18.6326 37.0534 18.0965C37.4235 17.5299 37.753 17.2585 38.1265 17.5021C38.4519 17.75 38.6109 18.3601 38.6851 18.8677C38.7089 19.0282 38.7168 19.1748 38.7294 19.3262C38.1478 19.3758 37.6831 20.0696 37.6831 20.9378C37.6831 21.6023 37.9556 22.1695 38.3432 22.4231L31.1808 46.787H31.1438C31.1438 46.8228 31.1489 46.8574 31.1495 46.8935L31.1158 47.0082C31.0655 47.1806 31.1062 47.3506 31.1808 47.4872C31.5482 51.1192 34.7383 53.9586 38.6218 53.9586C42.5049 53.9586 45.6952 51.1195 46.063 47.4883C46.1367 47.3536 46.1784 47.1876 46.1299 47.016ZM0.803523 46.787L7.03943 24.5312L7.18603 46.787H0.803523ZM7.85039 46.787L7.70381 24.5337L14.2455 46.787H7.85039ZM38.3002 46.787H31.9051L38.447 24.5337L38.3002 46.787ZM38.9646 46.787L39.1113 24.5312L45.3469 46.787H38.9646Z" fill="black"/>
<path d="M46.1299 47.016L46.0945 46.8887C46.0949 46.8544 46.0998 46.8214 46.0998 46.787H46.0659L39.24 22.422C39.6268 22.1678 39.8987 21.6015 39.8987 20.9378C39.8987 20.1339 39.4959 19.4963 38.9755 19.3627C38.973 19.1806 38.9727 19.0016 38.9557 18.7995C38.8973 18.2464 38.808 17.4982 38.3137 17.0029C38.1702 16.8967 38.0136 16.8163 37.9083 16.8044C37.754 16.7637 37.5836 16.7922 37.4421 16.8629C37.1405 16.9996 36.9187 17.2704 36.7013 17.5299C36.2741 18.0607 35.8995 18.6706 35.4637 19.1809C35.0326 19.6946 34.5501 20.1181 34.0234 20.3208C33.7461 20.4283 33.5494 20.4721 33.2104 20.4682C32.9493 20.4896 32.6371 20.3862 32.3544 20.3543C31.7852 20.1952 31.2379 19.9618 30.7578 19.5487C30.2703 19.1548 29.8326 18.6678 29.3727 18.1222C28.8979 17.621 28.3875 17.0819 27.8145 16.7673C27.237 16.4748 26.6552 16.3448 26.1479 16.4207C25.8898 16.4141 25.6548 16.4906 25.434 16.5641C25.2128 16.635 25.0033 16.686 24.8151 16.7925C24.4378 16.9793 24.1034 17.1213 23.8671 17.3231C23.7778 17.3863 23.7041 17.4403 23.6293 17.4949V14.8615C23.6293 14.6871 23.5331 14.5455 23.4145 14.5455H22.7362C22.6175 14.5455 22.5214 14.6871 22.5214 14.8615V17.4949C22.4466 17.4403 22.3729 17.3863 22.2835 17.3231C22.0474 17.1213 21.7127 16.9793 21.3355 16.7925C21.1475 16.686 20.9378 16.635 20.7168 16.5641C20.4956 16.4906 20.261 16.4141 20.0026 16.4207C19.4956 16.3448 18.9136 16.4748 18.3363 16.7673C17.7631 17.0819 17.2529 17.621 16.7777 18.1222C16.3179 18.6678 15.8802 19.1548 15.3928 19.5487C14.9129 19.9618 14.3653 20.1952 13.7963 20.3543C13.5135 20.3862 13.2013 20.4896 12.9403 20.4682C12.6014 20.4721 12.4047 20.4283 12.1273 20.3208C11.6007 20.1181 11.1179 19.6946 10.687 19.1809C10.2508 18.6706 9.87665 18.0607 9.44931 17.5299C9.23207 17.2704 9.01029 16.9996 8.70845 16.8629C8.56694 16.7922 8.39661 16.7637 8.24229 16.8044C8.13716 16.8163 7.98058 16.8967 7.83701 17.0029C7.3426 17.4982 7.25349 18.2464 7.19508 18.7995C7.17812 19.0016 7.17773 19.1809 7.1751 19.3627C6.65468 19.4963 6.25184 20.1339 6.25184 20.9378C6.25184 21.6015 6.52373 22.1675 6.91074 22.4217L0.0847161 46.787H0.050786C0.050786 46.8214 0.0555016 46.8549 0.0560669 46.8893L0.0204623 47.016C-0.0272076 47.1873 0.0138596 47.3533 0.0875313 47.4878C0.455136 51.1192 3.64525 53.9586 7.52856 53.9586C11.4119 53.9586 14.6022 51.1192 14.9696 47.4875C15.0444 47.3508 15.0855 47.1806 15.0348 47.0082L15.0009 46.8929C15.0014 46.8571 15.0065 46.8228 15.0065 46.787H14.9698L7.80744 22.4231C8.19521 22.1695 8.46764 21.6023 8.46764 20.9378C8.46764 20.0696 8.00283 19.3758 7.42137 19.3262C7.4338 19.1748 7.44171 19.0282 7.46545 18.8677C7.53988 18.3601 7.69872 17.75 8.02431 17.5021C8.39794 17.2585 8.7271 17.5299 9.09715 18.0965C9.45421 18.6326 9.81768 19.2835 10.2656 19.8936C10.7106 20.5012 11.2564 21.0728 11.904 21.393C12.5842 21.7448 13.242 21.7146 13.9069 21.6478C14.5641 21.5521 15.2417 21.35 15.8507 20.9281C16.4666 20.5423 17.0079 19.9762 17.4707 19.4794C17.9231 18.9455 18.3448 18.5375 18.7525 18.2201C19.1704 17.9554 19.5925 17.7602 20.0196 17.7242C20.4368 17.6538 20.8547 17.6646 21.2115 17.7075C21.5705 17.7799 21.8914 17.7899 22.1659 17.8697C22.2987 17.9035 22.4171 17.9318 22.5214 17.9556V21.3747C21.8872 21.7104 21.4309 22.5944 21.4309 23.6433C21.4309 24.6746 21.8714 25.5492 22.4894 25.8973C21.7071 26.2643 21.1367 27.3296 21.1367 28.6023C21.1367 29.8924 21.7225 30.9696 22.5214 31.322V51.5569H22.2629C22.0741 51.5569 21.9213 51.7817 21.9213 52.0592V56.9558H18.9991C18.239 56.9558 17.6227 57.8625 17.6227 58.9807V61.3822H15.3909C15.1972 61.3822 15.0403 61.6134 15.0403 61.8981V64.126C15.0403 64.4109 15.1972 64.6421 15.3909 64.6421H30.7598C30.9534 64.6421 31.1105 64.4109 31.1105 64.126V61.8981C31.1105 61.6134 30.9534 61.3822 30.7598 61.3822H28.528V58.9225C28.528 57.8364 27.9296 56.9558 27.1912 56.9558H24.2294V52.0592C24.2294 51.7817 24.0763 51.5569 23.8878 51.5569H23.6293V31.322C24.4282 30.9696 25.014 29.8924 25.014 28.6023C25.014 27.3296 24.4437 26.2643 23.6614 25.8973C24.2792 25.5492 24.7197 24.6746 24.7197 23.6433C24.7197 22.5944 24.2636 21.7104 23.6293 21.3747V17.9556C23.7335 17.9318 23.852 17.9035 23.9847 17.8697C24.2592 17.7899 24.5803 17.7799 24.9388 17.7075C25.2959 17.6646 25.7136 17.6538 26.1312 17.7242C26.5581 17.7602 26.9802 17.9554 27.3983 18.2201C27.8056 18.5375 28.2275 18.9455 28.6799 19.4794C29.1428 19.9762 29.6838 20.5423 30.3001 20.9281C30.9089 21.35 31.5865 21.5521 32.2438 21.6478C32.9086 21.7146 33.5664 21.7448 34.2467 21.393C34.8943 21.0728 35.4402 20.5012 35.8854 19.8936C36.3329 19.2835 36.6966 18.6326 37.0534 18.0965C37.4235 17.5299 37.753 17.2585 38.1265 17.5021C38.4519 17.75 38.6109 18.3601 38.6851 18.8677C38.7089 19.0282 38.7168 19.1748 38.7294 19.3262C38.1478 19.3758 37.6831 20.0696 37.6831 20.9378C37.6831 21.6023 37.9556 22.1695 38.3432 22.4231L31.1808 46.787H31.1438C31.1438 46.8228 31.1489 46.8574 31.1495 46.8935L31.1158 47.0082C31.0655 47.1806 31.1062 47.3506 31.1808 47.4872C31.5482 51.1192 34.7383 53.9586 38.6218 53.9586C42.5049 53.9586 45.6952 51.1195 46.063 47.4883C46.1367 47.3536 46.1784 47.1876 46.1299 47.016ZM0.803523 46.787L7.03943 24.5312L7.18603 46.787H0.803523ZM7.85039 46.787L7.70381 24.5337L14.2455 46.787H7.85039ZM38.3002 46.787H31.9051L38.447 24.5337L38.3002 46.787ZM38.9646 46.787L39.1113 24.5312L45.3469 46.787H38.9646Z" fill="#FFBB00"/>
<path d="M54.2474 0H55.8668V80H54.2474V0Z" fill="#2E2E2E"/>
</svg>
