<svg width="242" height="179" viewBox="0 0 242 179" fill="none" xmlns="http://www.w3.org/2000/svg">
<path d="M241.89 115.151L241.704 114.7C241.706 114.578 241.731 114.461 241.731 114.339H241.553L205.761 27.9328C207.789 27.0313 209.215 25.0229 209.215 22.6695C209.215 19.8186 207.103 17.5575 204.374 17.0837C204.361 16.4378 204.359 15.8028 204.27 15.0861C203.964 13.1259 203.496 10.4716 200.904 8.71485C200.151 8.33834 199.33 8.05328 198.778 8.01101C197.969 7.8665 197.076 7.96774 196.334 8.21842C194.752 8.70307 193.588 9.66353 192.449 10.5837C190.209 12.4662 188.246 14.629 185.959 16.4388C183.699 18.2604 181.169 19.7626 178.407 20.4812C176.953 20.8626 175.921 21.0179 174.144 21.0041C172.775 21.0808 171.137 20.7132 169.655 20.6001C166.671 20.0358 163.8 19.2081 161.283 17.7433C158.727 16.3464 156.432 14.6191 154.021 12.6844C151.53 10.9071 148.854 8.99502 145.849 7.87924C142.821 6.84211 139.77 6.38106 137.111 6.65042C135.757 6.62781 134.525 6.89819 133.367 7.1587C132.207 7.41036 131.109 7.59122 130.122 7.96872C128.144 8.6313 126.39 9.13465 125.151 9.85032C124.682 10.0745 124.296 10.2661 123.904 10.4598V1.12068C123.904 0.502336 123.399 0 122.778 0H119.222C118.598 0 118.094 0.502336 118.094 1.12068V10.4598C117.702 10.2661 117.316 10.0745 116.847 9.85032C115.609 9.13465 113.854 8.6313 111.876 7.96872C110.89 7.59122 109.79 7.41036 108.631 7.1587C107.472 6.89819 106.24 6.62781 104.887 6.65042C102.227 6.38106 99.1762 6.84211 96.149 7.87924C93.1435 8.99502 90.468 10.9071 87.9762 12.6844C85.5655 14.6191 83.2704 16.3464 80.7144 17.7433C78.198 19.2081 75.3269 20.0358 72.3431 20.6001C70.8601 20.7132 69.2229 21.0808 67.8546 21.0041C66.0771 21.0179 65.0457 20.8626 63.5914 20.4812C60.8299 19.7626 58.2986 18.2604 56.0391 16.4388C53.7518 14.629 51.7897 12.4662 49.5489 10.5837C48.4098 9.66353 47.2468 8.70307 45.6641 8.21842C44.9221 7.96774 44.0289 7.8665 43.2197 8.01101C42.6684 8.05328 41.8474 8.33834 41.0945 8.71485C38.502 10.4716 38.0347 13.1259 37.7284 15.0861C37.6385 15.8028 37.6375 16.4388 37.6237 17.0837C34.8948 17.5575 32.7825 19.8186 32.7825 22.6695C32.7825 25.0229 34.2082 27.0304 36.2375 27.9318L0.444125 114.339H0.265339C0.265339 114.461 0.291031 114.58 0.293995 114.702L0.107297 115.151C-0.142667 115.759 0.0726748 116.347 0.458984 116.824C2.38658 129.703 19.1144 139.772 39.4772 139.772C59.8399 139.772 76.5688 129.702 78.4954 116.823C78.8876 116.339 79.103 115.735 78.8372 115.124L78.6594 114.715C78.6624 114.588 78.689 114.466 78.689 114.339H78.4963L40.9394 27.9367C42.9727 27.0372 44.4014 25.0259 44.4014 22.6695C44.4014 19.5905 41.964 17.1299 38.9151 16.954C38.9803 16.4172 39.0217 15.8972 39.1462 15.328C39.5365 13.528 40.3694 11.3642 42.0767 10.4863C44.0359 9.62124 45.7619 10.5837 47.7023 12.5931C49.5746 14.4943 51.4804 16.8025 53.8289 18.9663C56.1625 21.1211 59.0248 23.1482 62.4205 24.2836C65.9872 25.5311 69.4364 25.424 72.9231 25.1871C76.3692 24.848 79.922 24.1313 83.1152 22.6351C86.345 21.2667 89.1836 19.2592 91.6111 17.4975C93.9833 15.6051 96.1945 14.1571 98.3316 13.0315C100.523 12.0927 102.737 11.4006 104.975 11.2728C107.163 11.0231 109.355 11.0615 111.226 11.2138C113.108 11.4704 114.791 11.5058 116.23 11.7889C116.927 11.9089 117.547 12.0091 118.094 12.0936V24.2187C114.769 25.4092 112.376 28.5442 112.376 32.2632C112.376 35.9211 114.686 39.0227 117.927 40.2575C113.824 41.559 110.834 45.337 110.834 49.8502C110.834 54.4254 113.905 58.2455 118.094 59.495V131.255H116.739C115.749 131.255 114.948 132.052 114.948 133.036V150.401H99.6248C95.6392 150.401 92.4075 153.616 92.4075 157.582V166.098H80.7046C79.6889 166.098 78.8659 166.918 78.8659 167.928V175.829C78.8659 176.839 79.6889 177.659 80.7046 177.659H161.294C162.309 177.659 163.133 176.839 163.133 175.829V167.928C163.133 166.918 162.309 166.098 161.294 166.098H149.591V157.376C149.591 153.524 146.453 150.401 142.581 150.401H127.051V133.036C127.051 132.052 126.248 131.255 125.26 131.255H123.904V59.495C128.093 58.2455 131.165 54.4254 131.165 49.8502C131.165 45.337 128.174 41.559 124.072 40.2575C127.311 39.0227 129.622 35.9211 129.622 32.2632C129.622 28.5442 127.23 25.4092 123.904 24.2197V12.0936C124.45 12.0091 125.072 11.9089 125.767 11.7889C127.207 11.5058 128.89 11.4704 130.771 11.2138C132.643 11.0615 134.833 11.0231 137.023 11.2728C139.261 11.4006 141.475 12.0927 143.667 13.0315C145.803 14.1571 148.015 15.6051 150.387 17.4975C152.815 19.2592 155.653 21.2667 158.883 22.6351C162.076 24.1313 165.628 24.848 169.075 25.1871C172.561 25.424 176.01 25.5311 179.578 24.2836C182.974 23.1482 185.836 21.1211 188.171 18.9663C190.517 16.8025 192.424 14.4943 194.295 12.5931C196.236 10.5837 197.963 9.62124 199.922 10.4863C201.628 11.3642 202.462 13.528 202.851 15.328C202.976 15.8972 203.017 16.4172 203.083 16.954C200.034 17.1299 197.597 19.5905 197.597 22.6695C197.597 25.0259 199.026 27.0372 201.058 27.9367L163.501 114.339H163.307C163.307 114.466 163.334 114.589 163.337 114.717L163.16 115.124C162.896 115.735 163.11 116.338 163.501 116.822C165.428 129.702 182.156 139.772 202.519 139.772C222.881 139.772 239.61 129.703 241.539 116.826C241.926 116.349 242.143 115.76 241.89 115.151ZM4.21339 114.339L36.9123 35.4129L37.681 114.339H4.21339ZM41.1647 114.339L40.396 35.4217L74.6985 114.339H41.1647ZM200.833 114.339H167.299L201.603 35.4217L200.833 114.339ZM204.317 114.339L205.086 35.4129L237.783 114.339H204.317Z" fill="#8D8D8D" fill-opacity="0.1"/>
</svg>
