<svg width="162" height="120" viewBox="0 0 162 120" fill="none" xmlns="http://www.w3.org/2000/svg">
<path d="M161.926 77.0847L161.802 76.7826C161.803 76.701 161.82 76.6227 161.82 76.5411H161.701L137.741 18.6988C139.099 18.0953 140.053 16.7509 140.053 15.1754C140.053 13.267 138.639 11.7534 136.812 11.4362C136.804 11.0038 136.802 10.5787 136.743 10.099C136.538 8.78676 136.224 7.0099 134.489 5.83391C133.985 5.58186 133.436 5.39104 133.066 5.36274C132.524 5.266 131.927 5.33378 131.43 5.50159C130.371 5.82602 129.592 6.46897 128.829 7.08494C127.33 8.34517 126.016 9.79296 124.485 11.0045C122.972 12.2239 121.278 13.2295 119.43 13.7105C118.456 13.9659 117.766 14.0698 116.576 14.0606C115.659 14.1119 114.563 13.8658 113.571 13.7902C111.573 13.4124 109.652 12.8583 107.966 11.8777C106.255 10.9426 104.719 9.78635 103.105 8.49124C101.438 7.30143 99.646 6.02146 97.6347 5.27454C95.6076 4.58026 93.5653 4.27162 91.7848 4.45193C90.8787 4.43679 90.0539 4.61779 89.2788 4.79219C88.5023 4.96066 87.7668 5.08173 87.1061 5.33443C85.782 5.77798 84.608 6.11493 83.7786 6.59401C83.4651 6.74406 83.2066 6.87236 82.944 7.00201V0.750209C82.944 0.336274 82.606 0 82.19 0H79.8096C79.3923 0 79.055 0.336274 79.055 0.750209V7.00201C78.7924 6.87236 78.5338 6.74406 78.2197 6.59401C77.3909 6.11493 76.2163 5.77798 74.8922 5.33443C74.2322 5.08173 73.496 4.96066 72.7202 4.79219C71.9438 4.61779 71.1196 4.43679 70.2135 4.45193C68.4331 4.27162 66.3907 4.58026 64.3642 5.27454C62.3522 6.02146 60.5612 7.30143 58.8932 8.49124C57.2794 9.78635 55.743 10.9426 54.032 11.8777C52.3474 12.8583 50.4254 13.4124 48.428 13.7902C47.4353 13.8658 46.3393 14.1119 45.4233 14.0606C44.2335 14.0698 43.543 13.9659 42.5694 13.7105C40.7208 13.2295 39.0263 12.2239 37.5137 11.0045C35.9826 9.79296 34.6691 8.34517 33.1691 7.08494C32.4065 6.46897 31.628 5.82602 30.5685 5.50159C30.0718 5.33378 29.4739 5.266 28.9322 5.36274C28.5631 5.39104 28.0135 5.58186 27.5096 5.83391C25.7741 7.0099 25.4612 8.78676 25.2562 10.099C25.196 10.5787 25.1954 11.0045 25.1861 11.4362C23.3594 11.7534 21.9453 13.267 21.9453 15.1754C21.9453 16.7509 22.8997 18.0947 24.2582 18.6982L0.297307 76.5411H0.177624C0.177624 76.6227 0.194822 76.7023 0.196807 76.7839L0.0718271 77.0847C-0.0955046 77.4913 0.0486501 77.8848 0.307254 78.2047C1.59763 86.8262 12.7956 93.5664 26.4269 93.5664C40.0581 93.5664 51.2568 86.8256 52.5465 78.204C52.809 77.8796 52.9532 77.4755 52.7753 77.0662L52.6563 76.7924C52.6583 76.7075 52.6761 76.626 52.6761 76.5411H52.5471L27.4057 18.7014C28.7668 18.0993 29.7232 16.7528 29.7232 15.1754C29.7232 13.1143 28.0916 11.4671 26.0506 11.3493C26.0942 10.99 26.122 10.6419 26.2053 10.2609C26.4666 9.05592 27.0241 7.60744 28.167 7.01977C29.4786 6.44066 30.634 7.08494 31.9329 8.43006C33.1863 9.70279 34.4621 11.248 36.0342 12.6964C37.5964 14.1389 39.5124 15.4959 41.7856 16.256C44.1733 17.0911 46.4822 17.0194 48.8163 16.8608C51.1232 16.6338 53.5015 16.154 55.6391 15.1524C57.8012 14.2364 59.7014 12.8925 61.3264 11.7132C62.9144 10.4464 64.3946 9.47707 65.8252 8.72356C67.2922 8.09509 68.7743 7.63179 70.2724 7.54624C71.7374 7.37909 73.2044 7.40478 74.457 7.50678C75.717 7.67854 76.8433 7.70224 77.8069 7.89177C78.2732 7.97205 78.6886 8.03915 79.055 8.09575V16.2125C76.8287 17.0095 75.2269 19.1081 75.2269 21.5976C75.2269 24.0464 76.7732 26.1227 78.9426 26.9492C76.1965 27.8205 74.1945 30.3495 74.1945 33.3708C74.1945 36.4335 76.2507 38.9908 79.055 39.8272V87.8647H78.1476C77.4849 87.8647 76.9485 88.3984 76.9485 89.0571V100.682H66.691C64.0229 100.682 61.8595 102.834 61.8595 105.489V111.19H54.0254C53.3455 111.19 52.7945 111.739 52.7945 112.415V117.704C52.7945 118.38 53.3455 118.929 54.0254 118.929H107.974C108.653 118.929 109.204 118.38 109.204 117.704V112.415C109.204 111.739 108.653 111.19 107.974 111.19H100.139V105.351C100.139 102.772 98.0389 100.682 95.4469 100.682H85.0505V89.0571C85.0505 88.3984 84.5128 87.8647 83.8514 87.8647H82.944V39.8272C85.7483 38.9908 87.8045 36.4335 87.8045 33.3708C87.8045 30.3495 85.8025 27.8205 83.0564 26.9492C85.2244 26.1227 86.7714 24.0464 86.7714 21.5976C86.7714 19.1081 85.1702 17.0095 82.944 16.2132V8.09575C83.3098 8.03915 83.7257 7.97205 84.1913 7.89177C85.155 7.70224 86.282 7.67854 87.5407 7.50678C88.794 7.40478 90.2603 7.37909 91.7259 7.54624C93.2246 7.63179 94.7061 8.09509 96.1737 8.72356C97.6037 9.47707 99.0846 10.4464 100.673 11.7132C102.298 12.8925 104.197 14.2364 106.36 15.1524C108.497 16.154 110.875 16.6338 113.183 16.8608C115.516 17.0194 117.825 17.0911 120.213 16.256C122.487 15.4959 124.403 14.1389 125.965 12.6964C127.536 11.248 128.813 9.70279 130.065 8.43006C131.364 7.08494 132.52 6.44066 133.832 7.01977C134.974 7.60744 135.532 9.05592 135.793 10.2609C135.876 10.6419 135.904 10.99 135.948 11.3493C133.907 11.4671 132.276 13.1143 132.276 15.1754C132.276 16.7528 133.232 18.0993 134.593 18.7014L109.451 76.5411H109.322C109.322 76.626 109.339 76.7082 109.341 76.7938L109.223 77.0662C109.046 77.4755 109.189 77.879 109.451 78.2034C110.741 86.8256 121.939 93.5664 135.571 93.5664C149.201 93.5664 160.4 86.8263 161.691 78.206C161.95 77.8862 162.096 77.492 161.926 77.0847V77.0847ZM2.82054 76.5411L24.7099 23.7062L25.2245 76.5411H2.82054ZM27.5565 76.5411L27.0419 23.7121L50.0048 76.5411H27.5565ZM134.442 76.5411H111.994L134.957 23.7121L134.442 76.5411ZM136.774 76.5411L137.289 23.7062L159.177 76.5411H136.774V76.5411Z" fill="#DEDEDE"/>
</svg>
