<svg width="173" height="46" viewBox="0 0 173 46" fill="none" xmlns="http://www.w3.org/2000/svg">
<path d="M62.57 13.9489C62.57 12.8989 62.0009 12.0554 60.8629 11.4183C60.6376 11.3003 59.9441 10.9877 58.7823 10.4804C57.7272 10.0321 57.0633 9.57199 56.7906 9.10008C56.6484 8.84053 56.5772 8.56329 56.5772 8.26835C56.5772 7.4779 56.9625 6.92931 57.7331 6.62257C58.0651 6.4928 58.4326 6.42791 58.8356 6.42791C59.8315 6.42791 60.5902 6.76415 61.1118 7.43661C61.4556 7.89672 61.6216 8.45711 61.6097 9.11778H62.1432V6.02089C61.8587 6.02089 61.6927 6.10938 61.6453 6.28634C61.6216 6.36892 61.6097 6.481 61.6097 6.62257C60.768 6.16246 59.8196 5.93241 58.7645 5.93241C57.4842 5.93241 56.4883 6.28634 55.777 6.9942C55.3028 7.4897 55.0657 8.06779 55.0657 8.72846C55.0657 9.71946 55.6229 10.5276 56.7373 11.1529C56.9388 11.2591 57.6146 11.5599 58.7645 12.0554C59.8315 12.5273 60.5072 13.0051 60.7917 13.4888C60.9458 13.7602 61.0229 14.0551 61.0229 14.3736C61.0229 15.1995 60.6198 15.7953 59.8137 16.161C59.4343 16.3262 59.0135 16.4087 58.5511 16.4087C56.7373 16.3851 55.7296 15.2821 55.5281 13.0995H54.9946V16.7627C55.2791 16.7627 55.4451 16.6801 55.4925 16.5149C55.5162 16.4205 55.5281 16.2495 55.5281 16.0017C56.4409 16.6034 57.4782 16.9042 58.64 16.9042C60.0034 16.9042 61.0585 16.5385 61.8053 15.8071C62.3151 15.288 62.57 14.6686 62.57 13.9489Z" fill="#FFBB00"/>
<path d="M63.6369 6.56948H65.0595V12.7456C65.0833 15.5062 66.4644 16.8924 69.2029 16.9042C71.2894 16.9042 72.552 16.0548 72.9906 14.3559C73.121 13.8368 73.1862 13.247 73.1862 12.5863V6.56948H74.6088V6.10938H71.1412V6.56948H72.5638V12.6925C72.5638 14.9812 71.7102 16.2141 70.0031 16.391C69.8609 16.4028 69.7186 16.4087 69.5763 16.4087C68.13 16.4087 67.2172 15.8012 66.8378 14.586C66.6718 14.0551 66.5889 13.4062 66.5889 12.6394V6.56948H67.9937V6.10938H63.6369V6.56948Z" fill="#FFBB00"/>
<path d="M79.7658 16.7273C79.7658 16.4677 79.6709 16.3203 79.4812 16.2849C79.422 16.2731 79.3627 16.2672 79.3034 16.2672H78.3609V6.56948H79.7658V6.10938H75.409V6.56948H76.8316V16.2672H75.409V16.7273H79.7658Z" fill="#FFBB00"/>
<path d="M87.9813 16.7273C87.9813 16.4677 87.8865 16.3203 87.6968 16.2849C87.6375 16.2731 87.5783 16.2672 87.519 16.2672H86.3098V6.56948H87.3412C88.3014 6.56948 88.9416 7.14757 89.2617 8.30374C89.2617 8.35093 89.2676 8.38632 89.2795 8.40992L89.564 9.59558H90.0619L89.973 6.10938H81.1884L81.0995 9.59558H81.5974L81.8819 8.40992C82.2613 7.25375 82.9074 6.64027 83.8202 6.56948H84.7805V16.2672H83.0911V16.7273H87.9813Z" fill="#FFBB00"/>
<path d="M63.6725 37.5193C63.6725 38.0148 63.7436 38.2979 63.8859 38.3687C63.9689 38.4041 64.0815 38.4218 64.2238 38.4218V35.0772H63.797C63.1924 37.0238 61.9832 38.003 60.1693 38.0148C58.6282 38.0148 57.579 37.2421 57.0218 35.6966C56.7491 34.9415 56.6128 34.0508 56.6128 33.0244C56.6128 30.8182 57.2233 29.3199 58.4444 28.5295C58.9779 28.1991 59.5706 28.034 60.2227 28.034C61.7046 28.034 62.7774 28.73 63.4413 30.1222C63.5599 30.3699 63.6607 30.6236 63.7436 30.8831H64.1704L64.1171 27.627C63.8563 27.627 63.6962 27.7095 63.6369 27.8747C63.6014 28.0163 63.5836 28.2463 63.5836 28.5649C63.2398 28.2227 62.653 27.9455 61.8231 27.7331C61.2778 27.6034 60.7206 27.5385 60.1515 27.5385C58.2784 27.5385 56.844 28.2286 55.8482 29.609C55.1606 30.5882 54.8168 31.7148 54.8168 32.989C54.8168 34.5345 55.2969 35.8322 56.2572 36.8822C57.2767 37.9676 58.6045 38.5103 60.2405 38.5103C61.4378 38.4985 62.5818 38.1682 63.6725 37.5193Z" fill="#FFBB00"/>
<path d="M71.3368 27.5385C69.9142 27.5385 68.6931 28.0045 67.6736 28.9365C66.5592 29.9629 66.002 31.3019 66.002 32.9536C66.002 34.8648 66.66 36.3395 67.9759 37.3777C68.9362 38.1328 70.0387 38.5103 71.2835 38.5103C72.6824 38.5103 73.8857 38.0384 74.8933 37.0946C76.0196 36.0446 76.5827 34.6879 76.5827 33.0244C76.5827 31.0778 75.901 29.5972 74.5377 28.5826C73.613 27.8865 72.546 27.5385 71.3368 27.5385ZM71.3368 38.0148C69.6178 38.0148 68.5153 37.1005 68.0292 35.2718C67.8633 34.623 67.7803 33.8738 67.7803 33.0244C67.7803 30.2165 68.6339 28.5885 70.341 28.1402C70.6374 28.0694 70.9515 28.034 71.2835 28.034C73.6189 28.0576 74.7926 29.6974 74.8044 32.9536C74.8044 35.5255 74.0872 37.1241 72.6527 37.7493C72.2496 37.9263 71.811 38.0148 71.3368 38.0148Z" fill="#FFBB00"/>
<path d="M82.6288 38.3333V37.8732H81.2239V33.4668H82.9133L85.7585 38.3333H88.4437C88.4437 38.0738 88.3726 37.9263 88.2303 37.8909C88.171 37.8791 88.0999 37.8732 88.0169 37.8732H87.3412L84.4782 33.3075C85.6044 33.0362 86.375 32.4522 86.7899 31.5556C86.944 31.2016 87.0211 30.8418 87.0211 30.4761C87.0211 29.5913 86.6358 28.8834 85.8652 28.3525C85.2369 27.9278 84.4604 27.7154 83.5357 27.7154H78.272V28.1755H79.6946V37.8732H78.272V38.3333H82.6288ZM83.0022 28.1755C84.0217 28.1755 84.7271 28.5885 85.1183 29.4143C85.2724 29.7564 85.3495 30.1163 85.3495 30.4938C85.3495 31.3432 85.0531 32.0039 84.4604 32.4758C84.0573 32.7943 83.589 32.9536 83.0555 32.9536H81.2239V28.1755H83.0022Z" fill="#FFBB00"/>
<path d="M94.0452 28.1755C95.1003 28.1755 95.782 28.6475 96.0902 29.5913C96.185 29.898 96.2325 30.2283 96.2325 30.5823C96.2325 32.116 95.5449 32.9595 94.1697 33.1129C94.0274 33.1247 93.8852 33.1306 93.7429 33.1306H92.1069V28.1755H94.0452ZM93.8852 38.3333C93.8852 38.0738 93.7903 37.9263 93.6006 37.8909C93.5414 37.8791 93.4821 37.8732 93.4228 37.8732H92.1069V33.6438H93.6718C95.616 33.6438 96.9023 33.0952 97.5306 31.998C97.7795 31.5851 97.904 31.1073 97.904 30.5646C97.904 29.3966 97.3943 28.5767 96.3747 28.1048C95.8294 27.8452 95.1774 27.7154 94.4186 27.7154H89.155V28.1755H90.5776V37.8732H89.155V38.3333H93.8852Z" fill="#FFBB00"/>
<path d="M104.75 27.5385C103.328 27.5385 102.107 28.0045 101.087 28.9365C99.9727 29.9629 99.4156 31.3019 99.4156 32.9536C99.4156 34.8648 100.074 36.3395 101.389 37.3777C102.35 38.1328 103.452 38.5103 104.697 38.5103C106.096 38.5103 107.299 38.0384 108.307 37.0946C109.433 36.0446 109.996 34.6879 109.996 33.0244C109.996 31.0778 109.315 29.5972 107.951 28.5826C107.027 27.8865 105.96 27.5385 104.75 27.5385ZM104.75 38.0148C103.031 38.0148 101.929 37.1005 101.443 35.2718C101.277 34.623 101.194 33.8738 101.194 33.0244C101.194 30.2165 102.047 28.5885 103.755 28.1402C104.051 28.0694 104.365 28.034 104.697 28.034C107.032 28.0576 108.206 29.6974 108.218 32.9536C108.218 35.5255 107.501 37.1241 106.066 37.7493C105.663 37.9263 105.225 38.0148 104.75 38.0148Z" fill="#FFBB00"/>
<path d="M116.042 38.3333V37.8732H114.637V33.4668H116.327L119.172 38.3333H121.857C121.857 38.0738 121.786 37.9263 121.644 37.8909C121.585 37.8791 121.513 37.8732 121.43 37.8732H120.755L117.892 33.3075C119.018 33.0362 119.788 32.4522 120.203 31.5556C120.358 31.2016 120.435 30.8418 120.435 30.4761C120.435 29.5913 120.049 28.8834 119.279 28.3525C118.65 27.9278 117.874 27.7154 116.949 27.7154H111.686V28.1755H113.108V37.8732H111.686V38.3333H116.042ZM116.416 28.1755C117.435 28.1755 118.141 28.5885 118.532 29.4143C118.686 29.7564 118.763 30.1163 118.763 30.4938C118.763 31.3432 118.467 32.0039 117.874 32.4758C117.471 32.7943 117.003 32.9536 116.469 32.9536H114.637V28.1755H116.416Z" fill="#FFBB00"/>
<path d="M132.758 38.3333C132.758 38.0738 132.663 37.9263 132.473 37.8909C132.414 37.8791 132.355 37.8732 132.296 37.8732H131.691L127.619 27.7154H126.961L122.978 37.8732H121.857V38.3333H125.023C125.023 38.0738 124.928 37.9263 124.738 37.8909C124.679 37.8791 124.619 37.8732 124.56 37.8732H123.689L125.023 34.4401H128.739L130.073 37.8732H128.917V38.3333H132.758ZM128.543 33.9269H125.218L126.872 29.6444L128.543 33.9269Z" fill="#FFBB00"/>
<path d="M140.262 38.3333C140.262 38.0738 140.167 37.9263 139.978 37.8909C139.918 37.8791 139.859 37.8732 139.8 37.8732H138.591V28.1755H139.622C140.582 28.1755 141.222 28.7536 141.543 29.9098C141.543 29.957 141.548 29.9924 141.56 30.016L141.845 31.2016H142.343L142.254 27.7154H133.469L133.38 31.2016H133.878L134.163 30.016C134.542 28.8598 135.188 28.2463 136.101 28.1755H137.061V37.8732H135.372V38.3333H140.262Z" fill="#FFBB00"/>
<path d="M148.033 38.3333C148.033 38.0738 147.938 37.9263 147.749 37.8909C147.689 37.8791 147.63 37.8732 147.571 37.8732H146.628V28.1755H148.033V27.7154H143.676V28.1755H145.099V37.8732H143.676V38.3333H148.033Z" fill="#FFBB00"/>
<path d="M155.057 27.5385C153.635 27.5385 152.414 28.0045 151.394 28.9365C150.28 29.9629 149.723 31.3019 149.723 32.9536C149.723 34.8648 150.381 36.3395 151.696 37.3777C152.657 38.1328 153.759 38.5103 155.004 38.5103C156.403 38.5103 157.606 38.0384 158.614 37.0946C159.74 36.0446 160.303 34.6879 160.303 33.0244C160.303 31.0778 159.622 29.5972 158.258 28.5826C157.334 27.8865 156.267 27.5385 155.057 27.5385ZM155.057 38.0148C153.338 38.0148 152.236 37.1005 151.75 35.2718C151.584 34.623 151.501 33.8738 151.501 33.0244C151.501 30.2165 152.354 28.5885 154.062 28.1402C154.358 28.0694 154.672 28.034 155.004 28.034C157.339 28.0576 158.513 29.6974 158.525 32.9536C158.525 35.5255 157.808 37.1241 156.373 37.7493C155.97 37.9263 155.532 38.0148 155.057 38.0148Z" fill="#FFBB00"/>
<path d="M169.355 28.1755H170.866V36.1036L164.109 27.7154H161.637V28.1755H163.06V37.8732H161.637V38.3333H165.282C165.282 38.0738 165.188 37.9263 164.998 37.8909C164.939 37.8791 164.879 37.8732 164.82 37.8732H163.771V29.6797L170.759 38.4218L171.577 38.2449V28.1755H173V27.7154H169.355V28.1755Z" fill="#FFBB00"/>
<path d="M39.9024 27.0342L39.8717 26.961C39.8721 26.9413 39.8763 26.9223 39.8763 26.9025H39.847L33.9426 12.8926C34.2772 12.7465 34.5124 12.4208 34.5124 12.0392C34.5124 11.577 34.1639 11.2104 33.7138 11.1336C33.7117 11.0289 33.7113 10.9259 33.6967 10.8097C33.6461 10.4917 33.5689 10.0615 33.1414 9.77666C33.0172 9.71561 32.8818 9.66939 32.7907 9.66254C32.6572 9.63911 32.5098 9.65552 32.3874 9.69617C32.1265 9.77475 31.9347 9.93048 31.7466 10.0797C31.3771 10.3849 31.0531 10.7356 30.6761 11.029C30.3032 11.3244 29.8858 11.5679 29.4303 11.6844C29.1904 11.7463 29.0202 11.7715 28.727 11.7692C28.5011 11.7815 28.2311 11.7221 27.9866 11.7037C27.4942 11.6122 27.0208 11.478 26.6055 11.2405C26.1839 11.014 25.8052 10.734 25.4074 10.4203C24.9967 10.1321 24.5552 9.82209 24.0595 9.64117C23.56 9.47301 23.0567 9.39826 22.618 9.44193C22.3947 9.43811 22.1914 9.48211 22.0004 9.52434C21.8091 9.56515 21.6278 9.59447 21.465 9.65568C21.1387 9.76311 20.8494 9.84472 20.6451 9.96076C20.5678 9.9971 20.5041 10.0282 20.4394 10.0596V8.54534C20.4394 8.44508 20.3561 8.36364 20.2536 8.36364H19.6668C19.5642 8.36364 19.481 8.44508 19.481 8.54534V10.0596C19.4163 10.0282 19.3526 9.9971 19.2752 9.96076C19.071 9.84472 18.7815 9.76311 18.4552 9.65568C18.2926 9.59447 18.1112 9.56515 17.92 9.52434C17.7287 9.48211 17.5257 9.43811 17.3023 9.44193C16.8637 9.39826 16.3603 9.47301 15.8609 9.64117C15.3651 9.82209 14.9237 10.1321 14.5127 10.4203C14.115 10.734 13.7364 11.014 13.3148 11.2405C12.8996 11.478 12.426 11.6122 11.9338 11.7037C11.6892 11.7221 11.4191 11.7815 11.1934 11.7692C10.9002 11.7715 10.73 11.7463 10.4901 11.6844C10.0346 11.5679 9.61702 11.3244 9.24428 11.029C8.86697 10.7356 8.5433 10.3849 8.17366 10.0797C7.98574 9.93048 7.7939 9.77475 7.53281 9.69617C7.41041 9.65552 7.26307 9.63911 7.12958 9.66254C7.03864 9.66939 6.9032 9.71561 6.77901 9.77666C6.35135 10.0615 6.27427 10.4917 6.22374 10.8097C6.20907 10.9259 6.20874 11.029 6.20646 11.1336C5.7563 11.2104 5.40784 11.577 5.40784 12.0392C5.40784 12.4208 5.64302 12.7463 5.97779 12.8925L0.0732794 26.9025H0.0439299C0.0439299 26.9223 0.0480089 26.9416 0.0484978 26.9613L0.0176999 27.0342C-0.0235346 27.1327 0.0119885 27.2282 0.0757146 27.3055C0.393693 29.3935 3.15314 31.0262 6.51221 31.0262C9.87127 31.0262 12.6309 29.3935 12.9487 27.3053C13.0134 27.2267 13.0489 27.1289 13.0051 27.0297L12.9758 26.9634C12.9762 26.9428 12.9806 26.9231 12.9806 26.9025H12.9489L6.75344 12.8933C7.08885 12.7474 7.32451 12.4213 7.32451 12.0392C7.32451 11.54 6.92244 11.1411 6.41948 11.1125C6.43024 11.0255 6.43708 10.9412 6.45762 10.8489C6.52199 10.5571 6.65939 10.2062 6.94102 10.0637C7.26422 9.92362 7.54894 10.0797 7.86904 10.4055C8.17789 10.7137 8.49229 11.088 8.8797 11.4388C9.26466 11.7882 9.73682 12.1169 10.297 12.301C10.8854 12.5032 11.4543 12.4859 12.0295 12.4475C12.598 12.3925 13.1841 12.2763 13.7108 12.0337C14.2436 11.8118 14.7118 11.4863 15.1121 11.2007C15.5035 10.8937 15.8682 10.6591 16.2209 10.4766C16.5824 10.3243 16.9475 10.2121 17.317 10.1914C17.6778 10.1509 18.0393 10.1571 18.348 10.1818C18.6585 10.2234 18.936 10.2292 19.1735 10.2751C19.2884 10.2945 19.3908 10.3108 19.481 10.3245V12.2905C18.9324 12.4835 18.5377 12.9918 18.5377 13.5949C18.5377 14.1879 18.9188 14.6908 19.4533 14.891C18.7766 15.102 18.2833 15.7145 18.2833 16.4463C18.2833 17.1881 18.79 17.8075 19.481 18.0101V29.6452H19.2574C19.0941 29.6452 18.9619 29.7745 18.9619 29.934V32.7496H16.4342C15.7768 32.7496 15.2437 33.2709 15.2437 33.9139V35.2948H13.3131C13.1456 35.2948 13.0098 35.4277 13.0098 35.5914V36.8724C13.0098 37.0363 13.1456 37.1692 13.3131 37.1692H26.6073C26.7747 37.1692 26.9106 37.0363 26.9106 36.8724V35.5914C26.9106 35.4277 26.7747 35.2948 26.6073 35.2948H24.6768V33.8804C24.6768 33.2559 24.1591 32.7496 23.5204 32.7496H20.9585V29.934C20.9585 29.7745 20.826 29.6452 20.663 29.6452H20.4394V18.0101C21.1304 17.8075 21.6371 17.1881 21.6371 16.4463C21.6371 15.7145 21.1438 15.102 20.4671 14.891C21.0015 14.6908 21.3826 14.1879 21.3826 13.5949C21.3826 12.9918 20.988 12.4835 20.4394 12.2905V10.3245C20.5295 10.3108 20.632 10.2945 20.7468 10.2751C20.9842 10.2292 21.2619 10.2234 21.5721 10.1818C21.881 10.1571 22.2423 10.1509 22.6035 10.1914C22.9728 10.2121 23.3379 10.3243 23.6995 10.4766C24.0519 10.6591 24.4168 10.8937 24.8081 11.2007C25.2086 11.4863 25.6765 11.8118 26.2096 12.0337C26.7362 12.2763 27.3223 12.3925 27.8909 12.4475C28.4659 12.4859 29.0349 12.5032 29.6234 12.301C30.1836 12.1169 30.6558 11.7882 31.0409 11.4388C31.428 11.088 31.7425 10.7137 32.0512 10.4055C32.3713 10.0797 32.6564 9.92362 32.9794 10.0637C33.2609 10.2062 33.3984 10.5571 33.4626 10.8489C33.4832 10.9412 33.49 11.0255 33.5009 11.1125C32.9978 11.1411 32.5959 11.54 32.5959 12.0392C32.5959 12.4213 32.8316 12.7474 33.1668 12.8933L26.9714 26.9025H26.9394C26.9394 26.9231 26.9438 26.943 26.9443 26.9637L26.9152 27.0297C26.8716 27.1289 26.9068 27.2266 26.9714 27.3052C27.2892 29.3935 30.0486 31.0262 33.4079 31.0262C36.7668 31.0262 39.5264 29.3937 39.8445 27.3058C39.9083 27.2283 39.9443 27.1329 39.9024 27.0342ZM0.695047 26.9025L6.08911 14.1055L6.21591 26.9025H0.695047ZM6.79058 26.9025L6.66379 14.1069L12.3224 26.9025H6.79058ZM33.1297 26.9025H27.5979L33.2566 14.1069L33.1297 26.9025ZM33.7043 26.9025L33.8313 14.1055L39.225 26.9025H33.7043Z" fill="black"/>
<path d="M39.9024 27.0342L39.8717 26.961C39.8721 26.9413 39.8763 26.9223 39.8763 26.9025H39.847L33.9426 12.8926C34.2772 12.7465 34.5124 12.4208 34.5124 12.0392C34.5124 11.577 34.1639 11.2104 33.7138 11.1336C33.7117 11.0289 33.7113 10.9259 33.6967 10.8097C33.6461 10.4917 33.5689 10.0615 33.1414 9.77666C33.0172 9.71561 32.8818 9.66939 32.7907 9.66254C32.6572 9.63911 32.5098 9.65552 32.3874 9.69617C32.1265 9.77475 31.9347 9.93048 31.7466 10.0797C31.3771 10.3849 31.0531 10.7356 30.6761 11.029C30.3032 11.3244 29.8858 11.5679 29.4303 11.6844C29.1904 11.7463 29.0202 11.7715 28.727 11.7692C28.5011 11.7815 28.2311 11.7221 27.9866 11.7037C27.4942 11.6122 27.0208 11.478 26.6055 11.2405C26.1839 11.014 25.8052 10.734 25.4074 10.4203C24.9967 10.1321 24.5552 9.82209 24.0595 9.64117C23.56 9.47301 23.0567 9.39826 22.618 9.44193C22.3947 9.43811 22.1914 9.48211 22.0004 9.52434C21.8091 9.56515 21.6278 9.59447 21.465 9.65568C21.1387 9.76311 20.8494 9.84472 20.6451 9.96076C20.5678 9.9971 20.5041 10.0282 20.4394 10.0596V8.54534C20.4394 8.44508 20.3561 8.36364 20.2536 8.36364H19.6668C19.5642 8.36364 19.481 8.44508 19.481 8.54534V10.0596C19.4163 10.0282 19.3526 9.9971 19.2752 9.96076C19.071 9.84472 18.7815 9.76311 18.4552 9.65568C18.2926 9.59447 18.1112 9.56515 17.92 9.52434C17.7287 9.48211 17.5257 9.43811 17.3023 9.44193C16.8637 9.39826 16.3603 9.47301 15.8609 9.64117C15.3651 9.82209 14.9237 10.1321 14.5127 10.4203C14.115 10.734 13.7364 11.014 13.3148 11.2405C12.8996 11.478 12.426 11.6122 11.9338 11.7037C11.6892 11.7221 11.4191 11.7815 11.1934 11.7692C10.9002 11.7715 10.73 11.7463 10.4901 11.6844C10.0346 11.5679 9.61702 11.3244 9.24428 11.029C8.86697 10.7356 8.5433 10.3849 8.17366 10.0797C7.98574 9.93048 7.7939 9.77475 7.53281 9.69617C7.41041 9.65552 7.26307 9.63911 7.12958 9.66254C7.03864 9.66939 6.9032 9.71561 6.77901 9.77666C6.35135 10.0615 6.27427 10.4917 6.22374 10.8097C6.20907 10.9259 6.20874 11.029 6.20646 11.1336C5.7563 11.2104 5.40784 11.577 5.40784 12.0392C5.40784 12.4208 5.64302 12.7463 5.97779 12.8925L0.0732794 26.9025H0.0439299C0.0439299 26.9223 0.0480089 26.9416 0.0484978 26.9613L0.0176999 27.0342C-0.0235346 27.1327 0.0119885 27.2282 0.0757146 27.3055C0.393693 29.3935 3.15314 31.0262 6.51221 31.0262C9.87127 31.0262 12.6309 29.3935 12.9487 27.3053C13.0134 27.2267 13.0489 27.1289 13.0051 27.0297L12.9758 26.9634C12.9762 26.9428 12.9806 26.9231 12.9806 26.9025H12.9489L6.75344 12.8933C7.08885 12.7474 7.32451 12.4213 7.32451 12.0392C7.32451 11.54 6.92244 11.1411 6.41948 11.1125C6.43024 11.0255 6.43708 10.9412 6.45762 10.8489C6.52199 10.5571 6.65939 10.2062 6.94102 10.0637C7.26422 9.92362 7.54894 10.0797 7.86904 10.4055C8.17789 10.7137 8.49229 11.088 8.8797 11.4388C9.26466 11.7882 9.73682 12.1169 10.297 12.301C10.8854 12.5032 11.4543 12.4859 12.0295 12.4475C12.598 12.3925 13.1841 12.2763 13.7108 12.0337C14.2436 11.8118 14.7118 11.4863 15.1121 11.2007C15.5035 10.8937 15.8682 10.6591 16.2209 10.4766C16.5824 10.3243 16.9475 10.2121 17.317 10.1914C17.6778 10.1509 18.0393 10.1571 18.348 10.1818C18.6585 10.2234 18.936 10.2292 19.1735 10.2751C19.2884 10.2945 19.3908 10.3108 19.481 10.3245V12.2905C18.9324 12.4835 18.5377 12.9918 18.5377 13.5949C18.5377 14.1879 18.9188 14.6908 19.4533 14.891C18.7766 15.102 18.2833 15.7145 18.2833 16.4463C18.2833 17.1881 18.79 17.8075 19.481 18.0101V29.6452H19.2574C19.0941 29.6452 18.9619 29.7745 18.9619 29.934V32.7496H16.4342C15.7768 32.7496 15.2437 33.2709 15.2437 33.9139V35.2948H13.3131C13.1456 35.2948 13.0098 35.4277 13.0098 35.5914V36.8724C13.0098 37.0363 13.1456 37.1692 13.3131 37.1692H26.6073C26.7747 37.1692 26.9106 37.0363 26.9106 36.8724V35.5914C26.9106 35.4277 26.7747 35.2948 26.6073 35.2948H24.6768V33.8804C24.6768 33.2559 24.1591 32.7496 23.5204 32.7496H20.9585V29.934C20.9585 29.7745 20.826 29.6452 20.663 29.6452H20.4394V18.0101C21.1304 17.8075 21.6371 17.1881 21.6371 16.4463C21.6371 15.7145 21.1438 15.102 20.4671 14.891C21.0015 14.6908 21.3826 14.1879 21.3826 13.5949C21.3826 12.9918 20.988 12.4835 20.4394 12.2905V10.3245C20.5295 10.3108 20.632 10.2945 20.7468 10.2751C20.9842 10.2292 21.2619 10.2234 21.5721 10.1818C21.881 10.1571 22.2423 10.1509 22.6035 10.1914C22.9728 10.2121 23.3379 10.3243 23.6995 10.4766C24.0519 10.6591 24.4168 10.8937 24.8081 11.2007C25.2086 11.4863 25.6765 11.8118 26.2096 12.0337C26.7362 12.2763 27.3223 12.3925 27.8909 12.4475C28.4659 12.4859 29.0349 12.5032 29.6234 12.301C30.1836 12.1169 30.6558 11.7882 31.0409 11.4388C31.428 11.088 31.7425 10.7137 32.0512 10.4055C32.3713 10.0797 32.6564 9.92362 32.9794 10.0637C33.2609 10.2062 33.3984 10.5571 33.4626 10.8489C33.4832 10.9412 33.49 11.0255 33.5009 11.1125C32.9978 11.1411 32.5959 11.54 32.5959 12.0392C32.5959 12.4213 32.8316 12.7474 33.1668 12.8933L26.9714 26.9025H26.9394C26.9394 26.9231 26.9438 26.943 26.9443 26.9637L26.9152 27.0297C26.8716 27.1289 26.9068 27.2266 26.9714 27.3052C27.2892 29.3935 30.0486 31.0262 33.4079 31.0262C36.7668 31.0262 39.5264 29.3937 39.8445 27.3058C39.9083 27.2283 39.9443 27.1329 39.9024 27.0342ZM0.695047 26.9025L6.08911 14.1055L6.21591 26.9025H0.695047ZM6.79058 26.9025L6.66379 14.1069L12.3224 26.9025H6.79058ZM33.1297 26.9025H27.5979L33.2566 14.1069L33.1297 26.9025ZM33.7043 26.9025L33.8313 14.1055L39.225 26.9025H33.7043Z" fill="#FFBB00"/>
<path d="M46.924 0H48.3247V46H46.924V0Z" fill="#2E2E2E"/>
</svg>
